<mxfile host="app.diagrams.net" modified="2022-08-31T19:06:32.620Z" agent="5.0 (Windows NT 10.0; Win64; x64) AppleWebKit/537.36 (KHTML, like Gecko) Chrome/104.0.0.0 Safari/537.36" etag="4RckjgIYorUF_AMPYTGG" version="20.2.7" type="github">
  <diagram name="Page-1" id="e7e014a7-5840-1c2e-5031-d8a46d1fe8dd">
    <mxGraphModel dx="1422" dy="762" grid="1" gridSize="10" guides="1" tooltips="1" connect="1" arrows="1" fold="1" page="1" pageScale="1" pageWidth="1169" pageHeight="826" background="none" math="0" shadow="0">
      <root>
        <mxCell id="0" />
        <mxCell id="1" parent="0" />
        <mxCell id="_fGlJRZBhpqBofpqZzea-42" value="&lt;br&gt;&lt;span style=&quot;color: rgb(0, 0, 0); font-family: Helvetica; font-size: 12px; font-style: normal; font-variant-ligatures: normal; font-variant-caps: normal; font-weight: 400; letter-spacing: normal; orphans: 2; text-align: center; text-indent: 0px; text-transform: none; widows: 2; word-spacing: 0px; -webkit-text-stroke-width: 0px; background-color: rgb(248, 249, 250); text-decoration-thickness: initial; text-decoration-style: initial; text-decoration-color: initial; float: none; display: inline !important;&quot;&gt;Airport&lt;/span&gt;&lt;br style=&quot;color: rgb(0, 0, 0); font-family: Helvetica; font-size: 12px; font-style: normal; font-variant-ligatures: normal; font-variant-caps: normal; font-weight: 400; letter-spacing: normal; orphans: 2; text-align: center; text-indent: 0px; text-transform: none; widows: 2; word-spacing: 0px; -webkit-text-stroke-width: 0px; background-color: rgb(248, 249, 250); text-decoration-thickness: initial; text-decoration-style: initial; text-decoration-color: initial;&quot;&gt;&lt;br style=&quot;color: rgb(0, 0, 0); font-family: Helvetica; font-size: 12px; font-style: normal; font-variant-ligatures: normal; font-variant-caps: normal; font-weight: 400; letter-spacing: normal; orphans: 2; text-align: center; text-indent: 0px; text-transform: none; widows: 2; word-spacing: 0px; -webkit-text-stroke-width: 0px; background-color: rgb(248, 249, 250); text-decoration-thickness: initial; text-decoration-style: initial; text-decoration-color: initial;&quot;&gt;&lt;span style=&quot;color: rgb(0, 0, 0); font-family: Helvetica; font-size: 12px; font-style: normal; font-variant-ligatures: normal; font-variant-caps: normal; font-weight: 400; letter-spacing: normal; orphans: 2; text-align: center; text-indent: 0px; text-transform: none; widows: 2; word-spacing: 0px; -webkit-text-stroke-width: 0px; background-color: rgb(248, 249, 250); text-decoration-thickness: initial; text-decoration-style: initial; text-decoration-color: initial; float: none; display: inline !important;&quot;&gt;- identity : int&lt;/span&gt;&lt;br style=&quot;color: rgb(0, 0, 0); font-family: Helvetica; font-size: 12px; font-style: normal; font-variant-ligatures: normal; font-variant-caps: normal; font-weight: 400; letter-spacing: normal; orphans: 2; text-align: center; text-indent: 0px; text-transform: none; widows: 2; word-spacing: 0px; -webkit-text-stroke-width: 0px; background-color: rgb(248, 249, 250); text-decoration-thickness: initial; text-decoration-style: initial; text-decoration-color: initial;&quot;&gt;&lt;span style=&quot;color: rgb(0, 0, 0); font-family: Helvetica; font-size: 12px; font-style: normal; font-variant-ligatures: normal; font-variant-caps: normal; font-weight: 400; letter-spacing: normal; orphans: 2; text-align: center; text-indent: 0px; text-transform: none; widows: 2; word-spacing: 0px; -webkit-text-stroke-width: 0px; background-color: rgb(248, 249, 250); text-decoration-thickness: initial; text-decoration-style: initial; text-decoration-color: initial; float: none; display: inline !important;&quot;&gt;- name : String&lt;/span&gt;&lt;br&gt;&lt;br&gt;&lt;br&gt;&lt;br&gt;" style="rounded=0;whiteSpace=wrap;html=1;" vertex="1" parent="1">
          <mxGeometry x="160" y="120" width="120" height="120" as="geometry" />
        </mxCell>
        <mxCell id="_fGlJRZBhpqBofpqZzea-43" value="" style="endArrow=classic;html=1;rounded=0;exitX=0;exitY=0.4;exitDx=0;exitDy=0;exitPerimeter=0;" edge="1" parent="1" source="_fGlJRZBhpqBofpqZzea-44">
          <mxGeometry width="50" height="50" relative="1" as="geometry">
            <mxPoint x="400" y="160" as="sourcePoint" />
            <mxPoint x="280" y="160" as="targetPoint" />
          </mxGeometry>
        </mxCell>
        <mxCell id="_fGlJRZBhpqBofpqZzea-44" value="Airline&lt;br&gt;&lt;br&gt;- nameOfCompany: String&lt;br&gt;-identity: int&lt;br&gt;&lt;br&gt;&lt;br&gt;" style="rounded=0;whiteSpace=wrap;html=1;" vertex="1" parent="1">
          <mxGeometry x="730" y="120" width="190" height="100" as="geometry" />
        </mxCell>
        <mxCell id="_fGlJRZBhpqBofpqZzea-45" value="Airplane&lt;br&gt;&lt;br&gt;-type :String&lt;br&gt;&lt;br&gt;+workHours() : void&lt;br&gt;+maintainancePeriod()" style="rounded=0;whiteSpace=wrap;html=1;" vertex="1" parent="1">
          <mxGeometry x="730" y="250" width="120" height="90" as="geometry" />
        </mxCell>
        <mxCell id="_fGlJRZBhpqBofpqZzea-46" value="Pilot&lt;br&gt;&lt;br&gt;- name : String&lt;br&gt;- ex.Level : int&lt;br&gt;&lt;br&gt;&lt;br&gt;" style="rounded=0;whiteSpace=wrap;html=1;" vertex="1" parent="1">
          <mxGeometry x="730" y="390" width="120" height="120" as="geometry" />
        </mxCell>
        <mxCell id="_fGlJRZBhpqBofpqZzea-47" value="Main Pilot&lt;br&gt;&lt;br&gt;&lt;br&gt;&lt;br&gt;" style="rounded=0;whiteSpace=wrap;html=1;" vertex="1" parent="1">
          <mxGeometry x="520" y="650" width="175" height="90" as="geometry" />
        </mxCell>
        <mxCell id="_fGlJRZBhpqBofpqZzea-48" style="edgeStyle=orthogonalEdgeStyle;rounded=0;orthogonalLoop=1;jettySize=auto;html=1;exitX=0.5;exitY=1;exitDx=0;exitDy=0;" edge="1" parent="1" source="_fGlJRZBhpqBofpqZzea-46" target="_fGlJRZBhpqBofpqZzea-46">
          <mxGeometry relative="1" as="geometry" />
        </mxCell>
        <mxCell id="_fGlJRZBhpqBofpqZzea-50" value="" style="endArrow=classic;html=1;rounded=0;startArrow=none;" edge="1" parent="1" source="_fGlJRZBhpqBofpqZzea-83">
          <mxGeometry width="50" height="50" relative="1" as="geometry">
            <mxPoint x="790" y="250" as="sourcePoint" />
            <mxPoint x="790" y="220" as="targetPoint" />
          </mxGeometry>
        </mxCell>
        <mxCell id="_fGlJRZBhpqBofpqZzea-51" value="1&lt;br&gt;&lt;br&gt;&lt;br&gt;n" style="endArrow=none;html=1;rounded=0;exitX=0.5;exitY=0;exitDx=0;exitDy=0;" edge="1" parent="1" source="_fGlJRZBhpqBofpqZzea-46">
          <mxGeometry width="50" height="50" relative="1" as="geometry">
            <mxPoint x="740" y="390" as="sourcePoint" />
            <mxPoint x="790" y="340" as="targetPoint" />
          </mxGeometry>
        </mxCell>
        <mxCell id="_fGlJRZBhpqBofpqZzea-55" value="" style="endArrow=none;html=1;rounded=0;" edge="1" parent="1">
          <mxGeometry width="50" height="50" relative="1" as="geometry">
            <mxPoint x="640" y="580" as="sourcePoint" />
            <mxPoint x="1000" y="580" as="targetPoint" />
          </mxGeometry>
        </mxCell>
        <mxCell id="_fGlJRZBhpqBofpqZzea-56" value="Co-Pilot&lt;br&gt;&lt;br&gt;&lt;br&gt;&lt;br&gt;&lt;br&gt;&lt;br&gt;" style="rounded=0;whiteSpace=wrap;html=1;" vertex="1" parent="1">
          <mxGeometry x="930" y="650" width="120" height="110" as="geometry" />
        </mxCell>
        <mxCell id="_fGlJRZBhpqBofpqZzea-58" value="" style="endArrow=none;html=1;rounded=0;exitX=0.686;exitY=0;exitDx=0;exitDy=0;exitPerimeter=0;" edge="1" parent="1" source="_fGlJRZBhpqBofpqZzea-47">
          <mxGeometry width="50" height="50" relative="1" as="geometry">
            <mxPoint x="639" y="570" as="sourcePoint" />
            <mxPoint x="639" y="580" as="targetPoint" />
          </mxGeometry>
        </mxCell>
        <mxCell id="_fGlJRZBhpqBofpqZzea-59" value="" style="endArrow=none;html=1;rounded=0;exitX=0.583;exitY=-0.012;exitDx=0;exitDy=0;exitPerimeter=0;" edge="1" parent="1" source="_fGlJRZBhpqBofpqZzea-56">
          <mxGeometry width="50" height="50" relative="1" as="geometry">
            <mxPoint x="560" y="520" as="sourcePoint" />
            <mxPoint x="1000" y="580" as="targetPoint" />
          </mxGeometry>
        </mxCell>
        <mxCell id="_fGlJRZBhpqBofpqZzea-60" value="" style="endArrow=none;html=1;rounded=0;entryX=0;entryY=0.442;entryDx=0;entryDy=0;entryPerimeter=0;" edge="1" parent="1" target="_fGlJRZBhpqBofpqZzea-46">
          <mxGeometry width="50" height="50" relative="1" as="geometry">
            <mxPoint x="360" y="440" as="sourcePoint" />
            <mxPoint x="610" y="470" as="targetPoint" />
          </mxGeometry>
        </mxCell>
        <mxCell id="_fGlJRZBhpqBofpqZzea-61" value="Flight&lt;br&gt;&lt;br&gt;-identity : int&lt;br&gt;-departure :float&lt;br&gt;-arrival : float&lt;br&gt;&lt;br&gt;&lt;br&gt;+ airportLands() :String&lt;br&gt;&lt;br&gt;&lt;br&gt;" style="rounded=0;whiteSpace=wrap;html=1;" vertex="1" parent="1">
          <mxGeometry x="170" y="380" width="190" height="180" as="geometry" />
        </mxCell>
        <mxCell id="_fGlJRZBhpqBofpqZzea-62" value="" style="endArrow=none;html=1;rounded=0;entryX=1;entryY=0.25;entryDx=0;entryDy=0;" edge="1" parent="1" target="_fGlJRZBhpqBofpqZzea-42">
          <mxGeometry width="50" height="50" relative="1" as="geometry">
            <mxPoint x="160" y="150" as="sourcePoint" />
            <mxPoint x="210" y="100" as="targetPoint" />
          </mxGeometry>
        </mxCell>
        <mxCell id="_fGlJRZBhpqBofpqZzea-63" value="" style="endArrow=none;html=1;rounded=0;entryX=0.992;entryY=0.375;entryDx=0;entryDy=0;entryPerimeter=0;" edge="1" parent="1">
          <mxGeometry width="50" height="50" relative="1" as="geometry">
            <mxPoint x="160" y="200" as="sourcePoint" />
            <mxPoint x="279.03999999999996" y="200" as="targetPoint" />
          </mxGeometry>
        </mxCell>
        <mxCell id="_fGlJRZBhpqBofpqZzea-65" value="" style="endArrow=none;html=1;rounded=0;" edge="1" parent="1">
          <mxGeometry width="50" height="50" relative="1" as="geometry">
            <mxPoint x="730" y="150" as="sourcePoint" />
            <mxPoint x="920" y="150" as="targetPoint" />
          </mxGeometry>
        </mxCell>
        <mxCell id="_fGlJRZBhpqBofpqZzea-67" value="" style="endArrow=none;html=1;rounded=0;" edge="1" parent="1">
          <mxGeometry width="50" height="50" relative="1" as="geometry">
            <mxPoint x="730" y="190" as="sourcePoint" />
            <mxPoint x="920" y="190" as="targetPoint" />
          </mxGeometry>
        </mxCell>
        <mxCell id="_fGlJRZBhpqBofpqZzea-68" value="" style="endArrow=none;html=1;rounded=0;entryX=0.992;entryY=0.375;entryDx=0;entryDy=0;entryPerimeter=0;" edge="1" parent="1">
          <mxGeometry width="50" height="50" relative="1" as="geometry">
            <mxPoint x="730" y="280" as="sourcePoint" />
            <mxPoint x="849.04" y="280" as="targetPoint" />
          </mxGeometry>
        </mxCell>
        <mxCell id="_fGlJRZBhpqBofpqZzea-69" value="" style="endArrow=none;html=1;rounded=0;entryX=0.992;entryY=0.375;entryDx=0;entryDy=0;entryPerimeter=0;" edge="1" parent="1">
          <mxGeometry width="50" height="50" relative="1" as="geometry">
            <mxPoint x="730" y="310" as="sourcePoint" />
            <mxPoint x="849.04" y="310" as="targetPoint" />
          </mxGeometry>
        </mxCell>
        <mxCell id="_fGlJRZBhpqBofpqZzea-72" value="" style="endArrow=none;html=1;rounded=0;" edge="1" parent="1">
          <mxGeometry width="50" height="50" relative="1" as="geometry">
            <mxPoint x="730" y="420" as="sourcePoint" />
            <mxPoint x="850" y="420" as="targetPoint" />
          </mxGeometry>
        </mxCell>
        <mxCell id="_fGlJRZBhpqBofpqZzea-73" value="" style="endArrow=none;html=1;rounded=0;" edge="1" parent="1">
          <mxGeometry width="50" height="50" relative="1" as="geometry">
            <mxPoint x="730" y="480" as="sourcePoint" />
            <mxPoint x="850" y="480" as="targetPoint" />
          </mxGeometry>
        </mxCell>
        <mxCell id="_fGlJRZBhpqBofpqZzea-74" value="" style="endArrow=none;html=1;rounded=0;startArrow=none;" edge="1" parent="1" source="_fGlJRZBhpqBofpqZzea-86">
          <mxGeometry width="50" height="50" relative="1" as="geometry">
            <mxPoint x="800" y="580" as="sourcePoint" />
            <mxPoint x="800" y="510" as="targetPoint" />
          </mxGeometry>
        </mxCell>
        <mxCell id="_fGlJRZBhpqBofpqZzea-76" value="" style="endArrow=none;html=1;rounded=0;exitX=0;exitY=0.344;exitDx=0;exitDy=0;exitPerimeter=0;" edge="1" parent="1" source="_fGlJRZBhpqBofpqZzea-47">
          <mxGeometry width="50" height="50" relative="1" as="geometry">
            <mxPoint x="525" y="680" as="sourcePoint" />
            <mxPoint x="695" y="680" as="targetPoint" />
          </mxGeometry>
        </mxCell>
        <mxCell id="_fGlJRZBhpqBofpqZzea-77" value="" style="endArrow=none;html=1;rounded=0;" edge="1" parent="1">
          <mxGeometry width="50" height="50" relative="1" as="geometry">
            <mxPoint x="930" y="680" as="sourcePoint" />
            <mxPoint x="1050" y="680" as="targetPoint" />
          </mxGeometry>
        </mxCell>
        <mxCell id="_fGlJRZBhpqBofpqZzea-79" value="" style="endArrow=none;html=1;rounded=0;exitX=0;exitY=0.344;exitDx=0;exitDy=0;exitPerimeter=0;" edge="1" parent="1">
          <mxGeometry width="50" height="50" relative="1" as="geometry">
            <mxPoint x="170" y="412.96000000000004" as="sourcePoint" />
            <mxPoint x="360" y="413" as="targetPoint" />
          </mxGeometry>
        </mxCell>
        <mxCell id="_fGlJRZBhpqBofpqZzea-82" value="" style="endArrow=none;html=1;rounded=0;exitX=0;exitY=0.344;exitDx=0;exitDy=0;exitPerimeter=0;" edge="1" parent="1">
          <mxGeometry width="50" height="50" relative="1" as="geometry">
            <mxPoint x="170" y="480.00000000000006" as="sourcePoint" />
            <mxPoint x="360" y="480.04" as="targetPoint" />
          </mxGeometry>
        </mxCell>
        <mxCell id="_fGlJRZBhpqBofpqZzea-83" value="" style="rhombus;whiteSpace=wrap;html=1;" vertex="1" parent="1">
          <mxGeometry x="785" y="220" width="10" height="10" as="geometry" />
        </mxCell>
        <mxCell id="_fGlJRZBhpqBofpqZzea-84" value="" style="endArrow=none;html=1;rounded=0;" edge="1" parent="1" target="_fGlJRZBhpqBofpqZzea-83">
          <mxGeometry width="50" height="50" relative="1" as="geometry">
            <mxPoint x="790" y="250" as="sourcePoint" />
            <mxPoint x="790" y="220" as="targetPoint" />
          </mxGeometry>
        </mxCell>
        <mxCell id="_fGlJRZBhpqBofpqZzea-86" value="" style="rhombus;whiteSpace=wrap;html=1;" vertex="1" parent="1">
          <mxGeometry x="790" y="510" width="20" height="20" as="geometry" />
        </mxCell>
        <mxCell id="_fGlJRZBhpqBofpqZzea-91" value="" style="endArrow=none;html=1;rounded=0;" edge="1" parent="1" target="_fGlJRZBhpqBofpqZzea-86">
          <mxGeometry width="50" height="50" relative="1" as="geometry">
            <mxPoint x="800" y="580" as="sourcePoint" />
            <mxPoint x="800" y="510" as="targetPoint" />
          </mxGeometry>
        </mxCell>
        <mxCell id="_fGlJRZBhpqBofpqZzea-94" value="" style="endArrow=none;html=1;rounded=0;" edge="1" parent="1">
          <mxGeometry width="50" height="50" relative="1" as="geometry">
            <mxPoint x="790" y="380" as="sourcePoint" />
            <mxPoint x="790" y="350" as="targetPoint" />
          </mxGeometry>
        </mxCell>
      </root>
    </mxGraphModel>
  </diagram>
</mxfile>
